# xmcd
#
# Track frame offsets:
#	150
#	16235
#	32165
#	54867
#	78125
#	100242
#	126345
#	150467
#	172315
#
# Disc length: 2672 seconds
#
# Revision: 1
# Processed by: cddbd v1.4PL0 Copyright (c) Steve Scherf et al.
# Submitted via: Gronk 1.4
#
DISCID=660a6e09
DTITLE=Stan Getz - Blues in Suburbia
DYEAR=1999
DGENRE=blues
TTITLE0=Don't Get Around Much Anymore
TTITLE1=Cherokee
TTITLE2=MyFunny Valentine
TTITLE3=Stan's Tune
TTITLE4=Blues In Suburbia
TTITLE5=Three Little Pearls
TTITLE6=Yesterdays
TTITLE7=Song Without Words
TTITLE8=Old Folks
EXTD=
EXTT0=
EXTT1=
EXTT2=
EXTT3=
EXTT4=
EXTT5=
EXTT6=
EXTT7=
EXTT8=
PLAYORDER=
